<?xml version="1.0" encoding="utf-8"?>
<!-- Generator: Adobe Illustrator 26.0.2, SVG Export Plug-In . SVG Version: 6.00 Build 0)  -->
<svg version="1.1" id="Layer_1" xmlns="http://www.w3.org/2000/svg" xmlns:xlink="http://www.w3.org/1999/xlink" x="0px" y="0px"
	 viewBox="0 0 411.64 322.46" style="enable-background:new 0 0 411.64 322.46;" xml:space="preserve">
<style type="text/css">
	.st0{fill:#05506F;}
	.st1{fill:#8EC370;}
</style>
<path class="st0" d="M161.7,201.14c0,0.91-0.04,1.69-0.12,2.33c-0.08,0.64-0.2,1.17-0.35,1.58c-0.16,0.4-0.37,0.7-0.62,0.87
	c-0.25,0.17-0.53,0.26-0.85,0.26h-35.02c-0.69,0-1.29-0.07-1.79-0.19c-0.5-0.13-0.91-0.37-1.22-0.73c-0.32-0.36-0.54-0.89-0.68-1.58
	c-0.14-0.69-0.21-1.58-0.21-2.68c0-1.03,0.05-1.92,0.14-2.66c0.1-0.74,0.27-1.4,0.52-1.98c0.25-0.58,0.57-1.15,0.97-1.69
	c0.39-0.55,0.9-1.16,1.53-1.81l10.54-11.3c2.1-2.2,3.8-4.2,5.09-6c1.29-1.8,2.29-3.45,3.01-4.94c0.72-1.49,1.21-2.86,1.48-4.12
	c0.27-1.25,0.4-2.45,0.4-3.57c0-1.04-0.17-2.02-0.5-2.94c-0.33-0.93-0.81-1.73-1.46-2.42c-0.64-0.69-1.45-1.23-2.42-1.63
	c-0.98-0.39-2.12-0.59-3.44-0.59c-1.85,0-3.49,0.23-4.92,0.7c-1.43,0.47-2.69,0.99-3.77,1.58c-1.08,0.58-1.99,1.12-2.71,1.6
	c-0.72,0.49-1.29,0.73-1.69,0.73c-0.28,0-0.53-0.09-0.73-0.28c-0.2-0.19-0.37-0.5-0.5-0.94c-0.13-0.44-0.23-1.03-0.3-1.77
	c-0.08-0.73-0.12-1.64-0.12-2.7c0-0.72,0.02-1.33,0.07-1.81c0.05-0.49,0.12-0.91,0.21-1.27c0.1-0.36,0.22-0.68,0.38-0.94
	c0.15-0.27,0.43-0.59,0.82-0.96c0.39-0.37,1.12-0.85,2.17-1.43c1.05-0.58,2.35-1.15,3.88-1.69c1.54-0.55,3.23-1.01,5.09-1.39
	c1.85-0.38,3.78-0.57,5.79-0.57c3.17,0,5.94,0.4,8.31,1.2c2.37,0.8,4.34,1.91,5.91,3.34c1.57,1.43,2.74,3.13,3.51,5.09
	c0.77,1.96,1.15,4.07,1.15,6.33c0,1.98-0.19,3.92-0.57,5.84c-0.37,1.91-1.16,3.98-2.35,6.19c-1.19,2.21-2.87,4.66-5.04,7.34
	c-2.16,2.69-5.03,5.8-8.61,9.35l-7.11,7.3h24.01c0.32,0,0.61,0.1,0.87,0.28c0.26,0.19,0.49,0.48,0.68,0.87
	c0.19,0.39,0.33,0.91,0.43,1.55C161.65,199.5,161.7,200.26,161.7,201.14"/>
<path class="st0" d="M212.45,188.66c0,1.6-0.17,2.82-0.5,3.65c-0.33,0.83-0.78,1.25-1.34,1.25h-5.41v11.01
	c0,0.32-0.09,0.59-0.28,0.82c-0.19,0.24-0.52,0.43-0.99,0.59c-0.47,0.16-1.08,0.27-1.84,0.35c-0.75,0.08-1.73,0.12-2.91,0.12
	c-1.13,0-2.08-0.04-2.85-0.12c-0.77-0.08-1.38-0.2-1.83-0.35c-0.46-0.16-0.77-0.35-0.94-0.59c-0.17-0.24-0.26-0.51-0.26-0.82v-11.01
	h-23.3c-0.44,0-0.83-0.06-1.18-0.16c-0.35-0.11-0.64-0.36-0.87-0.75c-0.24-0.39-0.41-0.96-0.52-1.7c-0.11-0.74-0.17-1.72-0.17-2.94
	c0-1.01,0.02-1.88,0.07-2.61c0.05-0.73,0.13-1.4,0.24-2c0.11-0.59,0.27-1.16,0.47-1.69c0.2-0.53,0.46-1.1,0.78-1.69l18.92-33.38
	c0.16-0.28,0.42-0.53,0.8-0.73c0.38-0.2,0.9-0.38,1.58-0.52c0.68-0.14,1.53-0.24,2.57-0.31c1.04-0.06,2.29-0.1,3.77-0.1
	c1.6,0,2.97,0.04,4.1,0.12c1.13,0.08,2.03,0.2,2.71,0.38c0.68,0.17,1.17,0.38,1.48,0.64c0.31,0.25,0.47,0.55,0.47,0.9v36.67h5.41
	c0.5,0,0.93,0.39,1.29,1.16C212.26,185.6,212.45,186.87,212.45,188.66 M193.29,155.67h-0.09l-16.05,28h16.15V155.67z"/>
<path class="st0" d="M226.28,218.36c-0.16,0.41-0.36,0.74-0.61,0.99c-0.25,0.25-0.6,0.45-1.06,0.61c-0.46,0.16-1.02,0.28-1.69,0.35
	c-0.68,0.08-1.53,0.12-2.57,0.12c-1.29,0-2.34-0.06-3.15-0.19c-0.82-0.12-1.44-0.31-1.86-0.56c-0.42-0.25-0.66-0.57-0.73-0.96
	c-0.07-0.39,0-0.86,0.19-1.39l28.15-79.03c0.13-0.41,0.32-0.75,0.57-1.01c0.25-0.27,0.59-0.48,1.03-0.64
	c0.44-0.15,1.01-0.27,1.72-0.35c0.71-0.08,1.56-0.12,2.57-0.12c1.32,0,2.38,0.07,3.18,0.19c0.8,0.13,1.4,0.31,1.81,0.56
	c0.41,0.25,0.64,0.57,0.71,0.97c0.06,0.39,0.02,0.85-0.14,1.39L226.28,218.36"/>
<path class="st0" d="M300.8,150.49c0,0.91-0.03,1.7-0.09,2.38c-0.07,0.68-0.15,1.3-0.26,1.88c-0.11,0.58-0.26,1.13-0.45,1.65
	c-0.19,0.52-0.41,1.07-0.66,1.67l-20.05,46.46c-0.19,0.41-0.43,0.74-0.73,0.99c-0.3,0.25-0.72,0.45-1.25,0.59
	c-0.53,0.14-1.21,0.24-2.05,0.28c-0.83,0.05-1.86,0.07-3.08,0.07c-1.66,0-2.98-0.06-3.95-0.16c-0.97-0.11-1.69-0.28-2.14-0.52
	c-0.45-0.24-0.7-0.54-0.73-0.9c-0.03-0.36,0.08-0.81,0.33-1.34L287.24,156h-25.6c-0.66,0-1.15-0.43-1.48-1.29
	c-0.33-0.87-0.5-2.24-0.5-4.12c0-0.94,0.05-1.75,0.14-2.42c0.09-0.68,0.23-1.23,0.4-1.67c0.17-0.44,0.38-0.75,0.61-0.94
	c0.23-0.19,0.51-0.28,0.82-0.28h36.2c0.57,0,1.04,0.05,1.41,0.16c0.38,0.11,0.68,0.36,0.9,0.73c0.22,0.38,0.38,0.91,0.5,1.6
	C300.74,148.45,300.8,149.36,300.8,150.49"/>
<path class="st1" d="M208.85,300.09c-71.75,0-130.11-58.37-130.11-130.11c0-19.4,4.17-38.07,12.39-55.49
	c6.01-12.73,14.01-24.35,23.79-34.54c2.37-2.48,6.29-2.55,8.76-0.19c2.47,2.37,2.56,6.29,0.19,8.76
	c-8.84,9.23-16.09,19.75-21.52,31.26c-7.44,15.75-11.21,32.64-11.21,50.19c0,64.91,52.81,117.72,117.72,117.72
	c64.91,0,117.72-52.81,117.72-117.72c0-21.62-5.91-42.76-17.09-61.11c-9.37-15.4-22.38-28.65-37.6-38.32
	c-18.82-11.96-40.62-18.28-63.03-18.28c-3.42,0-6.2-2.78-6.2-6.2c0-3.42,2.77-6.2,6.2-6.2c24.77,0,48.87,6.99,69.68,20.21
	c16.82,10.68,31.18,25.32,41.54,42.34c12.36,20.3,18.9,43.66,18.9,67.56C338.96,241.73,280.59,300.09,208.85,300.09"/>
<path class="st1" d="M140.58,113.18L89.76,62.37l69.41-18.6L140.58,113.18 M113.7,68.79l20.46,20.46l7.49-27.95L113.7,68.79z"/>
<g>
	<path class="st0" d="M209.62,17.24l6.8,0.3c1.59,0.07,2.75,0.54,3.5,1.41s1.09,2.06,1.02,3.55c-0.04,0.95-0.33,1.77-0.85,2.43
		s-1.24,1.14-2.15,1.41c0.21,0.2,0.38,0.41,0.51,0.63c0.13,0.22,0.27,0.52,0.41,0.91l1.54,4.04l-3.08-0.14l-1.5-3.88
		c-0.13-0.34-0.29-0.58-0.46-0.72s-0.46-0.21-0.86-0.23l-2.33-0.1l-0.21,4.69l-2.97-0.13L209.62,17.24z M215.35,24.53
		c0.81,0.04,1.43-0.12,1.87-0.46c0.44-0.34,0.68-0.91,0.71-1.7c0.04-0.79-0.13-1.38-0.5-1.77c-0.37-0.38-0.94-0.59-1.72-0.63
		l-3.24-0.14l-0.2,4.56L215.35,24.53z"/>
	<path class="st0" d="M221.53,26.79c0.22-1.75,0.85-3.03,1.89-3.84s2.51-1.1,4.41-0.86c1.9,0.24,3.25,0.88,4.07,1.92
		c0.82,1.04,1.12,2.44,0.9,4.19c-0.45,3.6-2.56,5.17-6.32,4.7C222.72,32.43,221.08,30.39,221.53,26.79z M228.92,29.98
		c0.46-0.39,0.75-1.11,0.88-2.16s0.02-1.82-0.32-2.31c-0.35-0.49-1-0.79-1.96-0.91c-0.95-0.12-1.65,0.02-2.11,0.4
		s-0.75,1.11-0.88,2.16s-0.02,1.82,0.32,2.31c0.35,0.49,0.99,0.79,1.94,0.91C227.75,30.5,228.46,30.37,228.92,29.98z"/>
	<path class="st0" d="M234.96,33.07c-0.53-0.83-0.65-1.9-0.37-3.21l1.37-6.4l2.91,0.62l-1.35,6.34c-0.14,0.68-0.09,1.21,0.17,1.59
		c0.26,0.39,0.72,0.65,1.4,0.79c0.49,0.1,0.97,0.1,1.43,0c0.46-0.1,0.89-0.28,1.27-0.53l1.54-7.24l2.91,0.62l-2.18,10.22l-2.7-0.57
		l0.1-0.99c-1.16,0.58-2.45,0.72-3.85,0.42C236.37,34.45,235.49,33.9,234.96,33.07z"/>
	<path class="st0" d="M249.25,26.42l2.64,0.8l-0.18,0.98c0.55-0.2,1.17-0.31,1.86-0.34c0.69-0.03,1.36,0.06,2.02,0.26
		c1.31,0.4,2.17,1,2.6,1.79c0.43,0.8,0.44,1.85,0.04,3.16l-1.95,6.41l-2.85-0.87l1.91-6.26c0.21-0.69,0.22-1.21,0.02-1.57
		s-0.66-0.65-1.39-0.87c-0.44-0.13-0.9-0.17-1.39-0.11s-0.94,0.19-1.35,0.41l-2.16,7.08l-2.85-0.87L249.25,26.42z"/>
	<path class="st0" d="M259.39,39.57c-0.49-1.08-0.41-2.45,0.26-4.11c0.45-1.12,1.04-2,1.78-2.63c0.74-0.64,1.54-1.02,2.41-1.16
		c0.87-0.13,1.74-0.02,2.61,0.33c1.06,0.43,1.87,1.04,2.42,1.83l1.86-4.62l2.76,1.11l-5.54,13.79l-2.37-0.95l0.2-0.97
		c-0.57,0.2-1.15,0.29-1.72,0.27c-0.58-0.02-1.2-0.16-1.87-0.43C260.82,41.46,259.89,40.64,259.39,39.57z M265.04,40.57
		c0.4,0,0.81-0.09,1.25-0.28l1.78-4.42c-0.37-0.73-0.94-1.26-1.7-1.56c-0.85-0.34-1.6-0.32-2.26,0.07
		c-0.66,0.38-1.21,1.12-1.65,2.21c-0.4,1-0.48,1.78-0.25,2.36s0.75,1.03,1.56,1.35C264.22,40.47,264.64,40.57,265.04,40.57z"/>
	<path class="st0" d="M278.54,48.61c-0.22-0.82-0.05-1.73,0.49-2.7l2.35-4.24l-1.29-0.72l1.11-2.01l1.29,0.72l1.09-1.97l3.03,0.67
		l-1.52,2.74l2.31,1.28l-1.27,1.92l-2.16-1.2l-2.25,4.07c-0.27,0.49-0.35,0.89-0.23,1.21c0.12,0.32,0.43,0.61,0.93,0.89
		c0.36,0.2,0.77,0.34,1.23,0.43l-0.99,1.79c-0.71-0.09-1.45-0.35-2.24-0.78C279.38,50.14,278.76,49.44,278.54,48.61z"/>
	<path class="st0" d="M291.87,39.85l2.5,1.62l-2.88,4.44c0.57-0.04,1.16,0.03,1.78,0.2s1.22,0.44,1.82,0.83
		c1.15,0.74,1.81,1.56,2,2.44c0.19,0.88-0.09,1.9-0.83,3.05l-3.65,5.62l-2.5-1.62l3.57-5.49c0.39-0.6,0.54-1.11,0.45-1.51
		c-0.09-0.4-0.46-0.81-1.1-1.23c-0.38-0.25-0.82-0.41-1.31-0.5s-0.96-0.08-1.41,0.02l-4.04,6.21l-2.5-1.62L291.87,39.85z"/>
	<path class="st0" d="M295.89,59.05c-0.26-1.36,0.17-2.76,1.28-4.18c1.04-1.35,2.22-2.12,3.52-2.32c1.3-0.2,2.63,0.23,4,1.29
		c1.25,0.97,1.97,2.06,2.15,3.25c0.18,1.19-0.16,2.34-1.01,3.44l-1.16,1.5l-5.97-4.63c-0.38,0.73-0.43,1.4-0.16,2.02
		c0.27,0.62,0.87,1.29,1.78,2c0.44,0.34,0.92,0.65,1.44,0.93c0.52,0.27,0.99,0.47,1.42,0.6l-1.3,1.67
		c-1.04-0.25-2.18-0.85-3.42-1.81C297.01,61.66,296.15,60.41,295.89,59.05z M303.74,58.98l0.35-0.45c0.79-1.02,0.58-2.01-0.64-2.95
		c-0.77-0.59-1.43-0.86-1.98-0.79c-0.55,0.06-1.1,0.45-1.65,1.16L303.74,58.98z"/>
	<path class="st0" d="M310.76,71.62c-0.04-1.36,0.57-2.66,1.84-3.91c1.28-1.26,2.61-1.84,3.99-1.75c1.39,0.1,2.72,0.79,4,2.09
		c0.52,0.52,0.92,1.01,1.22,1.46c0.3,0.45,0.54,0.93,0.72,1.45l-1.52,1.5c-0.29-0.83-0.82-1.64-1.59-2.42
		c-0.82-0.83-1.6-1.27-2.34-1.33c-0.74-0.06-1.53,0.32-2.37,1.15c-0.8,0.8-1.2,1.56-1.18,2.3c0.02,0.74,0.45,1.54,1.3,2.39
		c0.77,0.77,1.59,1.31,2.47,1.62l-1.57,1.55c-1-0.4-1.98-1.09-2.95-2.07C311.48,74.32,310.8,72.98,310.76,71.62z"/>
	<path class="st0" d="M317.46,79.61c0.05-0.66,0.46-1.33,1.23-2l9.11-8l1.96,2.24l-8.93,7.84c-0.28,0.24-0.42,0.46-0.43,0.66
		c-0.01,0.2,0.08,0.41,0.27,0.63c0.25,0.29,0.52,0.51,0.8,0.68L319.93,83c-0.29-0.15-0.55-0.33-0.79-0.51
		c-0.23-0.19-0.48-0.44-0.76-0.74C317.72,80.98,317.41,80.27,317.46,79.61z"/>
	<path class="st0" d="M324.06,79.84c1.39-1.08,2.74-1.54,4.05-1.38c1.31,0.16,2.55,1,3.72,2.51s1.68,2.92,1.52,4.24
		c-0.16,1.32-0.94,2.51-2.33,3.6c-2.87,2.23-5.46,1.84-7.79-1.15C320.92,84.67,321.2,82.07,324.06,79.84z M327.03,87.32
		c0.6,0.05,1.31-0.25,2.15-0.9c0.84-0.65,1.3-1.27,1.4-1.86c0.1-0.59-0.15-1.27-0.74-2.03c-0.59-0.75-1.18-1.16-1.77-1.2
		c-0.6-0.05-1.31,0.25-2.15,0.9c-0.83,0.65-1.3,1.27-1.4,1.86c-0.1,0.59,0.14,1.26,0.73,2.02
		C325.84,86.86,326.43,87.27,327.03,87.32z"/>
	<path class="st0" d="M329.01,93.11c0.23-1.34,1.08-2.5,2.57-3.47c1.5-0.99,2.92-1.3,4.26-0.93c1.34,0.37,2.51,1.31,3.52,2.83
		c0.4,0.61,0.71,1.17,0.92,1.67c0.21,0.5,0.35,1.02,0.43,1.57l-1.79,1.18c-0.12-0.87-0.48-1.77-1.09-2.69
		c-0.64-0.97-1.32-1.56-2.03-1.76c-0.72-0.21-1.57,0.02-2.55,0.66c-0.94,0.62-1.48,1.3-1.61,2.02c-0.13,0.73,0.14,1.59,0.8,2.6
		c0.6,0.91,1.3,1.6,2.11,2.07l-1.84,1.21c-0.9-0.59-1.73-1.46-2.49-2.61C329.18,95.9,328.78,94.45,329.01,93.11z"/>
	<path class="st0" d="M346.3,94.66l1.43,2.61l-7.17,3.93l5.18,1.61l1.63,2.98l-5.77-1.64l-3.27,6.87l-1.51-2.76l2.52-5l-1.61-0.5
		l-3.02,1.65l-1.43-2.61L346.3,94.66z"/>
	<path class="st0" d="M343.69,120.28c0.5-1.29,1.59-2.26,3.28-2.89c1.6-0.6,3-0.64,4.21-0.13c1.21,0.51,2.12,1.58,2.73,3.2
		c0.56,1.49,0.6,2.78,0.13,3.9c-0.47,1.11-1.36,1.91-2.67,2.4l-1.78,0.67l-2.66-7.08c-0.71,0.42-1.1,0.97-1.2,1.64
		s0.06,1.55,0.47,2.64c0.2,0.52,0.44,1.04,0.75,1.55c0.3,0.51,0.6,0.93,0.89,1.25l-1.98,0.74c-0.75-0.75-1.41-1.87-1.96-3.34
		C343.28,123.09,343.2,121.57,343.69,120.28z M350.41,124.34l0.54-0.2c1.21-0.45,1.55-1.4,1-2.85c-0.34-0.91-0.76-1.48-1.27-1.71
		c-0.5-0.23-1.18-0.19-2.02,0.12L350.41,124.34z"/>
	<path class="st0" d="M351.93,131.3l3.87-5.13l0.89,3.09l-2.3,3l3.54,1.32l0.89,3.09l-6-2.27l-4,5.3l-0.9-3.11l2.42-3.17l-3.73-1.4
		l-0.89-3.11L351.93,131.3z"/>
	<path class="st0" d="M359.48,139.48l0.48,2.53l-0.92,0.33c0.48,0.39,0.86,0.83,1.16,1.33c0.3,0.5,0.51,1.1,0.65,1.81
		c0.29,1.54,0.1,2.79-0.59,3.75c-0.69,0.95-1.93,1.6-3.74,1.94c-1.82,0.35-3.27,0.18-4.35-0.5c-1.08-0.68-1.76-1.79-2.06-3.33
		c-0.22-1.16-0.15-2.19,0.22-3.09l-5.24,1l-0.55-2.92L359.48,139.48z M353.3,148.03c0.62,0.34,1.5,0.4,2.63,0.19
		c1.1-0.21,1.85-0.56,2.26-1.06s0.53-1.19,0.36-2.09s-0.63-1.6-1.37-2.12l-4.7,0.89c-0.2,0.38-0.33,0.75-0.39,1.12
		c-0.07,0.36-0.05,0.78,0.03,1.24C352.28,147.08,352.68,147.69,353.3,148.03z"/>
	<path class="st0" d="M352.72,154.89c0.81-1.12,2.12-1.77,3.92-1.95c1.7-0.17,3.06,0.15,4.1,0.95s1.65,2.07,1.82,3.8
		c0.16,1.58-0.13,2.84-0.87,3.8c-0.74,0.95-1.8,1.5-3.19,1.64l-1.89,0.19l-0.75-7.52c-0.79,0.23-1.32,0.65-1.58,1.28
		c-0.26,0.62-0.34,1.51-0.22,2.67c0.06,0.56,0.16,1.12,0.32,1.68c0.16,0.57,0.34,1.05,0.54,1.44l-2.11,0.21
		c-0.53-0.92-0.88-2.17-1.04-3.73C351.59,157.49,351.91,156.01,352.72,154.89z M358.17,160.54l0.57-0.06
		c1.29-0.13,1.85-0.96,1.7-2.5c-0.1-0.97-0.36-1.63-0.78-1.98s-1.09-0.49-1.98-0.4L358.17,160.54z"/>
	<path class="st0" d="M362.91,165.23l0.08,2.75l-1.08,0.16c0.32,0.48,0.61,1.06,0.86,1.74c0.25,0.68,0.44,1.36,0.54,2.04l-2.25,0.06
		c-0.11-0.63-0.28-1.3-0.51-2.01s-0.47-1.27-0.72-1.68l-7.29,0.2l-0.08-2.97L362.91,165.23z"/>
	<path class="st0" d="M353.29,175.14c0.63-0.57,1.51-0.84,2.63-0.8l4.85,0.14l0.04-1.48l2.29,0.07l-0.04,1.48l2.25,0.07l0.79,3
		l-3.13-0.09l-0.08,2.64l-2.29-0.24l0.07-2.47l-4.65-0.14c-0.56-0.02-0.95,0.1-1.18,0.35c-0.23,0.25-0.35,0.66-0.37,1.24
		c-0.01,0.41,0.05,0.84,0.18,1.28l-2.05-0.06c-0.25-0.67-0.35-1.45-0.33-2.35C352.32,176.59,352.65,175.71,353.29,175.14z"/>
	<path class="st0" d="M351.34,190.64c0.21-0.68,0.43-1.23,0.67-1.64l2.44,0.37c-0.28,0.45-0.52,0.98-0.72,1.61s-0.35,1.22-0.44,1.78
		c-0.12,0.75-0.15,1.28-0.09,1.58c0.05,0.3,0.22,0.47,0.51,0.51c0.26,0.04,0.48-0.06,0.67-0.3c0.18-0.24,0.45-0.71,0.79-1.42
		c0.09-0.21,0.22-0.47,0.39-0.79c0.49-0.97,1-1.65,1.54-2.05c0.54-0.4,1.23-0.54,2.07-0.41c1,0.15,1.71,0.63,2.12,1.45
		c0.41,0.81,0.5,2,0.26,3.57c-0.09,0.6-0.22,1.17-0.4,1.73c-0.17,0.56-0.37,1.04-0.58,1.44l-2.42-0.37
		c0.23-0.35,0.44-0.77,0.62-1.27s0.3-0.96,0.37-1.42c0.11-0.7,0.14-1.22,0.09-1.57c-0.04-0.35-0.2-0.54-0.48-0.59
		c-0.25-0.04-0.45,0.05-0.61,0.28c-0.16,0.22-0.39,0.66-0.7,1.31l-0.33,0.69c-0.39,0.8-0.76,1.41-1.11,1.82
		c-0.35,0.41-0.74,0.68-1.16,0.82c-0.42,0.14-0.94,0.16-1.55,0.07c-1.03-0.16-1.75-0.66-2.17-1.51c-0.41-0.85-0.51-2.03-0.28-3.54
		C350.97,192.04,351.14,191.32,351.34,190.64z"/>
	<path class="st0" d="M350.68,200.25c0.85-0.51,1.92-0.61,3.22-0.3l6.37,1.52l-0.69,2.89l-6.3-1.5c-0.67-0.16-1.2-0.12-1.59,0.13
		c-0.39,0.25-0.67,0.71-0.83,1.38c-0.12,0.49-0.13,0.96-0.03,1.43c0.09,0.47,0.26,0.9,0.5,1.29l7.21,1.72l-0.69,2.89l-10.17-2.42
		l0.64-2.68l0.99,0.12c-0.55-1.17-0.66-2.46-0.33-3.86C349.26,201.63,349.83,200.76,350.68,200.25z"/>
	<path class="st0" d="M356.96,214.73l-0.83,2.44l-0.97-0.16c0.23,0.57,0.34,1.15,0.36,1.73c0.01,0.58-0.09,1.21-0.33,1.89
		c-0.5,1.49-1.29,2.48-2.36,2.97c-1.07,0.49-2.47,0.44-4.21-0.14c-1.75-0.59-2.93-1.45-3.54-2.57c-0.61-1.12-0.66-2.42-0.15-3.92
		c0.38-1.11,0.95-1.98,1.71-2.58l-5.05-1.71l0.95-2.82L356.96,214.73z M347.39,219.14c0.38,0.6,1.11,1.08,2.2,1.45
		c1.06,0.36,1.89,0.42,2.48,0.19c0.6-0.23,1.04-0.78,1.34-1.64s0.24-1.7-0.15-2.52l-4.53-1.53c-0.36,0.24-0.66,0.5-0.89,0.78
		c-0.24,0.28-0.43,0.65-0.58,1.09C346.96,217.81,347.01,218.54,347.39,219.14z"/>
	<path class="st0" d="M352.47,227.56l-1.05,2.36l-0.95-0.25c0.17,0.59,0.24,1.17,0.2,1.75c-0.04,0.58-0.21,1.2-0.5,1.85
		c-0.64,1.44-1.51,2.35-2.62,2.75c-1.11,0.39-2.5,0.22-4.18-0.53c-1.69-0.75-2.79-1.71-3.29-2.88c-0.5-1.17-0.43-2.48,0.21-3.91
		c0.48-1.07,1.12-1.88,1.94-2.42l-4.88-2.17l1.21-2.72L352.47,227.56z M342.53,231.07c0.32,0.63,1.01,1.18,2.05,1.65
		c1.02,0.45,1.84,0.59,2.46,0.42c0.62-0.18,1.11-0.68,1.48-1.51s0.4-1.67,0.08-2.52l-4.37-1.94c-0.38,0.2-0.7,0.43-0.96,0.7
		c-0.26,0.26-0.49,0.61-0.68,1.04C342.23,229.71,342.21,230.44,342.53,231.07z"/>
	<path class="st0" d="M342.46,237.03c1.54,0.86,2.49,1.92,2.85,3.19c0.36,1.27,0.07,2.74-0.86,4.41s-2.03,2.69-3.31,3.05
		c-1.27,0.37-2.68,0.12-4.22-0.74c-3.17-1.77-3.83-4.31-1.98-7.62C336.79,236.02,339.29,235.26,342.46,237.03z M336.73,242.68
		c0.19,0.57,0.74,1.11,1.67,1.62c0.92,0.52,1.68,0.71,2.26,0.57s1.11-0.63,1.58-1.48c0.47-0.83,0.61-1.54,0.42-2.1
		c-0.19-0.57-0.74-1.11-1.67-1.62c-0.92-0.52-1.68-0.71-2.26-0.57s-1.11,0.62-1.57,1.46C336.68,241.4,336.54,242.11,336.73,242.68z"
		/>
	<path class="st0" d="M340.06,251.63l-1.52,2.3l-0.97-0.49c-0.01,0.58-0.11,1.21-0.29,1.92s-0.43,1.37-0.72,1.98l-1.88-1.24
		c0.28-0.58,0.52-1.22,0.74-1.94c0.22-0.72,0.34-1.31,0.38-1.79l-6.09-4.02l1.64-2.48L340.06,251.63z"/>
	<path class="st0" d="M326.51,254.2c0.85-0.1,1.72,0.18,2.61,0.85l3.89,2.9l0.88-1.18l1.84,1.37l-0.88,1.18l1.8,1.34l-1.07,2.91
		l-2.51-1.87l-1.58,2.12l-1.73-1.51l1.47-1.98l-3.73-2.78c-0.45-0.33-0.84-0.46-1.17-0.39c-0.33,0.07-0.67,0.34-1.01,0.8
		c-0.25,0.33-0.44,0.72-0.59,1.16l-1.64-1.22c0.18-0.69,0.54-1.39,1.08-2.11C324.88,254.83,325.66,254.31,326.51,254.2z"/>
</g>
</svg>
